<?xml version="1.0" encoding="UTF-8"?>
<svg version="1.1" xmlns="http://www.w3.org/2000/svg" viewBox="0 0 160 160" width="160" height="160">
<path d="M0 0 C8.25970518 6.77639328 13.90427496 16.64355264 15.30322266 27.3125 C15.43593818 29.65465565 15.46836361 31.96686584 15.4375 34.3125 C15.42847656 35.14136719 15.41945313 35.97023437 15.41015625 36.82421875 C15.04935501 49.69279623 10.30504664 59.81446333 1.08984375 68.87890625 C-7.06780647 75.56248415 -17.47491502 78.14328231 -27.83203125 78.09765625 C-29.12431641 78.09443359 -30.41660156 78.09121094 -31.74804688 78.08789062 C-33.10286526 78.07953665 -34.45768297 78.07107172 -35.8125 78.0625 C-37.18684735 78.05748 -38.56119645 78.05291797 -39.93554688 78.04882812 C-43.29038341 78.03705677 -46.6451973 78.01912174 -50 78 C-50 72.06 -50 66.12 -50 60 C-48.46730469 59.97421875 -46.93460938 59.9484375 -45.35546875 59.921875 C-27.49442175 60.16081491 -27.49442175 60.16081491 -12.5 51.8125 C-7.7423639 45.36356552 -6.00253371 37.91141069 -7 30 C-8.44639872 23.23892691 -10.94747482 17.89997215 -16.703125 13.78125 C-22.86176615 10.03251191 -28.9263971 9.31937842 -36 10 C-43.59038715 12.53012905 -48.2745486 16.20936599 -51.85671997 23.3213501 C-56.49244782 34.18263661 -55.25994136 47.07604465 -55.1953125 58.640625 C-55.19157533 60.61887467 -55.18873169 62.59712622 -55.18673706 64.57537842 C-55.17915603 69.7439702 -55.15955597 74.91244687 -55.1373291 80.08099365 C-55.11675058 85.37038619 -55.10770984 90.65979759 -55.09765625 95.94921875 C-55.07630408 106.29953749 -55.04116796 116.64974109 -55 127 C-61.93 127 -68.86 127 -76 127 C-76.09073177 114.48145879 -76.16396347 101.96313957 -76.20724869 89.44434261 C-76.22803392 83.63000612 -76.25618443 77.81590822 -76.30175781 72.00170898 C-76.3455407 66.38011424 -76.36920508 60.75874754 -76.37950897 55.13699532 C-76.38684251 53.00301085 -76.40116142 50.86903743 -76.42292023 48.73515129 C-76.59638179 31.00229251 -75.93617811 15.57279555 -63.12109375 2.01171875 C-45.69530505 -14.42836877 -18.61993648 -14.17821388 0 0 Z " fill="#F57236" transform="translate(118,25)"/>
</svg>
